<svg width="11" height="14" viewBox="0 0 11 14" fill="none" xmlns="http://www.w3.org/2000/svg">
<g filter="url(#filter0_d_5924_7939)">
<path d="M8.97656 6.86719C9.46875 7.25 9.84245 7.73307 10.0977 8.31641C10.3529 8.88151 10.444 9.49219 10.3711 10.1484C10.2799 11.0964 9.86068 11.8893 9.11328 12.5273C8.36589 13.1654 7.5 13.4844 6.51562 13.4844H0.800781C0.673177 13.4844 0.563802 13.4388 0.472656 13.3477C0.39974 13.2747 0.363281 13.1745 0.363281 13.0469V11.7344C0.363281 11.6068 0.39974 11.5065 0.472656 11.4336C0.563802 11.3424 0.673177 11.2969 0.800781 11.2969H1.67578V3.42188H0.800781C0.673177 3.42188 0.563802 3.38542 0.472656 3.3125C0.39974 3.22135 0.363281 3.11198 0.363281 2.98438V1.67188C0.363281 1.54427 0.39974 1.44401 0.472656 1.37109C0.563802 1.27995 0.673177 1.23438 0.800781 1.23438H6.24219C7.28125 1.23438 8.14714 1.61719 8.83984 2.38281C9.53255 3.14844 9.82422 4.05078 9.71484 5.08984C9.66016 5.74609 9.41406 6.33854 8.97656 6.86719ZM3.86328 3.42188V6.04688H6.24219C6.60677 6.04688 6.91667 5.91927 7.17188 5.66406C7.42708 5.40885 7.55469 5.09896 7.55469 4.73438C7.55469 4.36979 7.42708 4.0599 7.17188 3.80469C6.91667 3.54948 6.60677 3.42188 6.24219 3.42188H3.86328ZM6.24219 11.2969C6.67969 11.2969 7.04427 11.151 7.33594 10.8594C7.6276 10.5495 7.77344 10.1849 7.77344 9.76562C7.77344 9.34635 7.6276 8.99089 7.33594 8.69922C7.04427 8.38932 6.67969 8.23438 6.24219 8.23438H3.86328V11.2969H6.24219Z" fill="black"/>
</g>
<defs>
<filter id="filter0_d_5924_7939" x="0.363281" y="0.234375" width="10.1172" height="13.25" filterUnits="userSpaceOnUse" color-interpolation-filters="sRGB">
<feFlood flood-opacity="0" result="BackgroundImageFix"/>
<feColorMatrix in="SourceAlpha" type="matrix" values="0 0 0 0 0 0 0 0 0 0 0 0 0 0 0 0 0 0 127 0" result="hardAlpha"/>
<feOffset dy="-1"/>
<feColorMatrix type="matrix" values="0 0 0 0 1 0 0 0 0 1 0 0 0 0 1 0 0 0 1 0"/>
<feBlend mode="normal" in2="BackgroundImageFix" result="effect1_dropShadow_5924_7939"/>
<feBlend mode="normal" in="SourceGraphic" in2="effect1_dropShadow_5924_7939" result="shape"/>
</filter>
</defs>
</svg>
