<svg width="13" height="14" viewBox="0 0 13 14" fill="none" xmlns="http://www.w3.org/2000/svg">
<path d="M0.479661 4.74014C0.487773 4.86258 0.526302 4.98094 0.59525 5.09522C0.664198 5.2095 0.751396 5.26663 0.856846 5.26663H4.87204C5.06671 5.2748 5.16 5.13603 5.15189 4.85034L3.61881 3.3076C4.50296 2.52398 5.52907 2.13217 6.69713 2.13217C7.54072 2.13217 8.32145 2.34236 9.03932 2.76274C9.75719 3.18312 10.325 3.7545 10.7427 4.4769C11.1605 5.19929 11.3693 5.98699 11.3693 6.83999C11.3693 7.69298 11.1605 8.47864 10.7427 9.19695C10.325 9.91527 9.75719 10.4846 9.03932 10.905C8.32145 11.3254 7.54072 11.5356 6.69713 11.5356C5.98331 11.5356 5.31209 11.3825 4.68345 11.0764C4.0548 10.7703 3.52147 10.3479 3.08345 9.80915L1.85456 10.7764C2.43859 11.5029 3.1524 12.0722 3.996 12.4845C4.83959 12.8967 5.73997 13.1028 6.69713 13.1028C7.54072 13.1028 8.34782 12.9375 9.11841 12.6069C9.889 12.2763 10.5521 11.8315 11.1078 11.2723C11.6634 10.7132 12.1055 10.0459 12.434 9.27042C12.7625 8.49496 12.9268 7.68278 12.9268 6.83386C12.9268 5.98495 12.7625 5.1748 12.434 4.40343C12.1055 3.63206 11.6634 2.9668 11.1078 2.40766C10.5521 1.84852 9.889 1.40366 9.11841 1.07307C8.34782 0.742481 7.54072 0.577187 6.69713 0.577187C5.91031 0.577187 5.15797 0.720033 4.4401 1.00573C3.72223 1.29142 3.0794 1.69139 2.51159 2.20564L0.881181 0.564943C0.597278 0.55678 0.459382 0.650651 0.467494 0.846555L0.479661 4.74014Z" fill="black"/>
</svg>
