<svg width="36" height="30" viewBox="0 0 36 30" fill="none" xmlns="http://www.w3.org/2000/svg">
<g filter="url(#filter0_d_2190_25453)">
<rect x="2" width="32" height="24" rx="8" fill="white"/>
<path fill-rule="evenodd" clip-rule="evenodd" d="M20.6667 14.6666C20.6667 15.0333 20.3667 15.3333 20 15.3333C19.6333 15.3333 19.3333 15.0333 19.3333 14.6666V11.9999C19.3333 11.6333 19.6333 11.3333 20 11.3333C20.3667 11.3333 20.6667 11.6333 20.6667 11.9999V14.6666ZM16.6667 6.88525C16.6667 6.78192 16.8093 6.66659 17 6.66659H19C19.1907 6.66659 19.3333 6.78192 19.3333 6.88525V7.99992H16.6667V6.88525ZM16.6667 14.6666C16.6667 15.0333 16.3667 15.3333 16 15.3333C15.6333 15.3333 15.3333 15.0333 15.3333 14.6666V11.9999C15.3333 11.6333 15.6333 11.3333 16 11.3333C16.3667 11.3333 16.6667 11.6333 16.6667 11.9999V14.6666ZM24 7.99992H23.3333H20.6667V6.88525C20.6667 6.02925 19.9193 5.33325 19 5.33325H17C16.0807 5.33325 15.3333 6.02925 15.3333 6.88525V7.99992H12.6667H12C11.6333 7.99992 11.3333 8.29992 11.3333 8.66659C11.3333 9.03325 11.6333 9.33325 12 9.33325H12.6667V16.6666C12.6667 17.7693 13.564 18.6666 14.6667 18.6666H21.3333C22.436 18.6666 23.3333 17.7693 23.3333 16.6666V9.33325H24C24.3667 9.33325 24.6667 9.03325 24.6667 8.66659C24.6667 8.29992 24.3667 7.99992 24 7.99992Z" fill="#EB5757"/>
<rect x="2.5" y="0.5" width="31" height="23" rx="7.5" stroke="#EB5757"/>
</g>
<defs>
<filter id="filter0_d_2190_25453" x="0" y="0" width="36" height="30" filterUnits="userSpaceOnUse" color-interpolation-filters="sRGB">
<feFlood flood-opacity="0" result="BackgroundImageFix"/>
<feColorMatrix in="SourceAlpha" type="matrix" values="0 0 0 0 0 0 0 0 0 0 0 0 0 0 0 0 0 0 127 0" result="hardAlpha"/>
<feOffset dy="4"/>
<feGaussianBlur stdDeviation="1"/>
<feColorMatrix type="matrix" values="0 0 0 0 0 0 0 0 0 0 0 0 0 0 0 0 0 0 0.15 0"/>
<feBlend mode="normal" in2="BackgroundImageFix" result="effect1_dropShadow_2190_25453"/>
<feBlend mode="normal" in="SourceGraphic" in2="effect1_dropShadow_2190_25453" result="shape"/>
</filter>
</defs>
</svg>
