<svg width="13" height="14" viewBox="0 0 13 14" fill="none" xmlns="http://www.w3.org/2000/svg">
<path d="M12.9871 4.74014C12.979 4.86258 12.9405 4.98094 12.8715 5.09522C12.8026 5.2095 12.7154 5.26663 12.61 5.26663H8.59476C8.40008 5.2748 8.3068 5.13603 8.31491 4.85034L9.84799 3.3076C8.96383 2.52398 7.93773 2.13217 6.76967 2.13217C5.92607 2.13217 5.14534 2.34236 4.42748 2.76274C3.70961 3.18312 3.1418 3.7545 2.72406 4.4769C2.30632 5.19929 2.09745 5.98699 2.09745 6.83999C2.09745 7.69298 2.30632 8.47864 2.72406 9.19695C3.1418 9.91527 3.70961 10.4846 4.42748 10.905C5.14534 11.3254 5.92607 11.5356 6.76967 11.5356C7.48348 11.5356 8.15471 11.3825 8.78335 11.0764C9.41199 10.7703 9.94532 10.3479 10.3833 9.80915L11.6122 10.7764C11.0282 11.5029 10.3144 12.0722 9.4708 12.4845C8.6272 12.8967 7.72683 13.1028 6.76967 13.1028C5.92607 13.1028 5.11898 12.9375 4.34839 12.6069C3.5778 12.2763 2.91468 11.8315 2.35904 11.2723C1.80341 10.7132 1.36133 10.0459 1.03281 9.27042C0.704297 8.49496 0.540039 7.68278 0.540039 6.83386C0.540039 5.98495 0.704297 5.1748 1.03281 4.40343C1.36133 3.63206 1.80341 2.9668 2.35904 2.40766C2.91468 1.84852 3.5778 1.40366 4.34839 1.07307C5.11898 0.742481 5.92607 0.577187 6.76967 0.577187C7.55649 0.577187 8.30883 0.720033 9.0267 1.00573C9.74456 1.29142 10.3874 1.69139 10.9552 2.20564L12.5856 0.564943C12.8695 0.55678 13.0074 0.650651 12.9993 0.846555L12.9871 4.74014Z" fill="#828282"/>
</svg>
